<mxfile host="app.diagrams.net" modified="2020-06-19T08:31:33.299Z" agent="5.0 (Macintosh; Intel Mac OS X 10_15_4) AppleWebKit/537.36 (KHTML, like Gecko) Chrome/83.0.4103.97 Safari/537.36" etag="KoCGPxnDu3usi9aMmnBt" version="13.2.6" type="github">
  <diagram id="JLKvmgfVltRkUnA7YjDC" name="第 1 页">
    <mxGraphModel dx="1351" dy="844" grid="1" gridSize="10" guides="1" tooltips="1" connect="1" arrows="1" fold="1" page="1" pageScale="1" pageWidth="827" pageHeight="1169" math="0" shadow="0">
      <root>
        <mxCell id="0" />
        <mxCell id="1" parent="0" />
        <mxCell id="bLwB_6TZOeMpm6WE4iFp-16" value="" style="rounded=1;whiteSpace=wrap;html=1;align=left;" vertex="1" parent="1">
          <mxGeometry x="40" y="430" width="250" height="260" as="geometry" />
        </mxCell>
        <mxCell id="bLwB_6TZOeMpm6WE4iFp-18" value="tail room" style="rounded=0;whiteSpace=wrap;html=1;" vertex="1" parent="1">
          <mxGeometry x="370" y="480" width="120" height="180" as="geometry" />
        </mxCell>
        <mxCell id="bLwB_6TZOeMpm6WE4iFp-20" value="" style="endArrow=classic;html=1;entryX=0;entryY=0;entryDx=0;entryDy=0;dashed=1;exitX=1;exitY=0.5;exitDx=0;exitDy=0;" edge="1" parent="1" source="bLwB_6TZOeMpm6WE4iFp-21">
          <mxGeometry width="50" height="50" relative="1" as="geometry">
            <mxPoint x="310" y="560" as="sourcePoint" />
            <mxPoint x="370" y="480" as="targetPoint" />
            <Array as="points">
              <mxPoint x="270" y="480" />
              <mxPoint x="350" y="480" />
            </Array>
          </mxGeometry>
        </mxCell>
        <mxCell id="bLwB_6TZOeMpm6WE4iFp-21" value="&lt;p style=&quot;line-height: 10%&quot;&gt;&lt;/p&gt;&lt;div&gt;unsigned char *head&lt;/div&gt;&lt;p&gt;&lt;/p&gt;" style="rounded=0;whiteSpace=wrap;html=1;align=left;dashed=1;" vertex="1" parent="1">
          <mxGeometry x="80" y="470" width="170" height="30" as="geometry" />
        </mxCell>
        <mxCell id="bLwB_6TZOeMpm6WE4iFp-22" value="&lt;p style=&quot;line-height: 10%&quot;&gt;&lt;/p&gt;&lt;div&gt;unsigned char *data&lt;/div&gt;&lt;p&gt;&lt;/p&gt;" style="rounded=0;whiteSpace=wrap;html=1;align=left;dashed=1;" vertex="1" parent="1">
          <mxGeometry x="80" y="500" width="170" height="30" as="geometry" />
        </mxCell>
        <mxCell id="bLwB_6TZOeMpm6WE4iFp-23" value="&lt;p style=&quot;line-height: 10%&quot;&gt;&lt;/p&gt;&lt;div&gt;unsigned char *tail&lt;/div&gt;&lt;p&gt;&lt;/p&gt;" style="rounded=0;whiteSpace=wrap;html=1;align=left;dashed=1;" vertex="1" parent="1">
          <mxGeometry x="80" y="530" width="170" height="30" as="geometry" />
        </mxCell>
        <mxCell id="bLwB_6TZOeMpm6WE4iFp-24" value="&lt;p style=&quot;line-height: 10%&quot;&gt;&lt;/p&gt;&lt;div&gt;unsigned char *end&lt;/div&gt;&lt;p&gt;&lt;/p&gt;" style="rounded=0;whiteSpace=wrap;html=1;align=left;dashed=1;" vertex="1" parent="1">
          <mxGeometry x="80" y="560" width="170" height="30" as="geometry" />
        </mxCell>
        <mxCell id="bLwB_6TZOeMpm6WE4iFp-25" value="struct sk_buff" style="text;html=1;align=center;verticalAlign=middle;resizable=0;points=[];autosize=1;" vertex="1" parent="1">
          <mxGeometry x="40" y="440" width="90" height="20" as="geometry" />
        </mxCell>
        <mxCell id="bLwB_6TZOeMpm6WE4iFp-28" value="" style="endArrow=classic;html=1;dashed=1;exitX=1;exitY=0.5;exitDx=0;exitDy=0;entryX=0;entryY=1;entryDx=0;entryDy=0;" edge="1" parent="1" source="bLwB_6TZOeMpm6WE4iFp-24" target="bLwB_6TZOeMpm6WE4iFp-18">
          <mxGeometry width="50" height="50" relative="1" as="geometry">
            <mxPoint x="390" y="610" as="sourcePoint" />
            <mxPoint x="440" y="560" as="targetPoint" />
            <Array as="points">
              <mxPoint x="280" y="575" />
              <mxPoint x="280" y="660" />
            </Array>
          </mxGeometry>
        </mxCell>
        <mxCell id="bLwB_6TZOeMpm6WE4iFp-29" value="" style="endArrow=none;dashed=1;html=1;exitX=1;exitY=0.5;exitDx=0;exitDy=0;" edge="1" parent="1" source="bLwB_6TZOeMpm6WE4iFp-22">
          <mxGeometry width="50" height="50" relative="1" as="geometry">
            <mxPoint x="350" y="500" as="sourcePoint" />
            <mxPoint x="340" y="480" as="targetPoint" />
            <Array as="points">
              <mxPoint x="320" y="515" />
            </Array>
          </mxGeometry>
        </mxCell>
        <mxCell id="bLwB_6TZOeMpm6WE4iFp-30" value="" style="endArrow=none;dashed=1;html=1;exitX=1;exitY=0.5;exitDx=0;exitDy=0;" edge="1" parent="1" source="bLwB_6TZOeMpm6WE4iFp-23">
          <mxGeometry width="50" height="50" relative="1" as="geometry">
            <mxPoint x="350" y="500" as="sourcePoint" />
            <mxPoint x="340" y="480" as="targetPoint" />
            <Array as="points">
              <mxPoint x="320" y="545" />
            </Array>
          </mxGeometry>
        </mxCell>
        <mxCell id="bLwB_6TZOeMpm6WE4iFp-31" value="" style="rounded=1;whiteSpace=wrap;html=1;align=left;" vertex="1" parent="1">
          <mxGeometry x="40" y="710" width="250" height="260" as="geometry" />
        </mxCell>
        <mxCell id="bLwB_6TZOeMpm6WE4iFp-32" value="tail room" style="rounded=0;whiteSpace=wrap;html=1;" vertex="1" parent="1">
          <mxGeometry x="370" y="860" width="120" height="80" as="geometry" />
        </mxCell>
        <mxCell id="bLwB_6TZOeMpm6WE4iFp-33" value="" style="endArrow=classic;html=1;entryX=0;entryY=0;entryDx=0;entryDy=0;dashed=1;exitX=1;exitY=0.5;exitDx=0;exitDy=0;" edge="1" parent="1" source="bLwB_6TZOeMpm6WE4iFp-34">
          <mxGeometry width="50" height="50" relative="1" as="geometry">
            <mxPoint x="310" y="840" as="sourcePoint" />
            <mxPoint x="370" y="760" as="targetPoint" />
            <Array as="points">
              <mxPoint x="270" y="760" />
              <mxPoint x="350" y="760" />
            </Array>
          </mxGeometry>
        </mxCell>
        <mxCell id="bLwB_6TZOeMpm6WE4iFp-34" value="&lt;p style=&quot;line-height: 10%&quot;&gt;&lt;/p&gt;&lt;div&gt;unsigned char *head&lt;/div&gt;&lt;p&gt;&lt;/p&gt;" style="rounded=0;whiteSpace=wrap;html=1;align=left;dashed=1;" vertex="1" parent="1">
          <mxGeometry x="80" y="750" width="170" height="30" as="geometry" />
        </mxCell>
        <mxCell id="bLwB_6TZOeMpm6WE4iFp-35" value="&lt;p style=&quot;line-height: 10%&quot;&gt;&lt;/p&gt;&lt;div&gt;unsigned char *data&lt;/div&gt;&lt;p&gt;&lt;/p&gt;" style="rounded=0;whiteSpace=wrap;html=1;align=left;dashed=1;gradientColor=#b3b3b3;fillColor=#f5f5f5;strokeColor=#666666;" vertex="1" parent="1">
          <mxGeometry x="80" y="780" width="170" height="30" as="geometry" />
        </mxCell>
        <mxCell id="bLwB_6TZOeMpm6WE4iFp-36" value="&lt;p style=&quot;line-height: 10%&quot;&gt;&lt;/p&gt;&lt;div&gt;unsigned char *tail&lt;/div&gt;&lt;p&gt;&lt;/p&gt;" style="rounded=0;whiteSpace=wrap;html=1;align=left;dashed=1;gradientColor=#b3b3b3;fillColor=#f5f5f5;strokeColor=#666666;" vertex="1" parent="1">
          <mxGeometry x="80" y="810" width="170" height="30" as="geometry" />
        </mxCell>
        <mxCell id="bLwB_6TZOeMpm6WE4iFp-37" value="&lt;p style=&quot;line-height: 10%&quot;&gt;&lt;/p&gt;&lt;div&gt;unsigned char *end&lt;/div&gt;&lt;p&gt;&lt;/p&gt;" style="rounded=0;whiteSpace=wrap;html=1;align=left;dashed=1;" vertex="1" parent="1">
          <mxGeometry x="80" y="840" width="170" height="30" as="geometry" />
        </mxCell>
        <mxCell id="bLwB_6TZOeMpm6WE4iFp-38" value="struct sk_buff" style="text;html=1;align=center;verticalAlign=middle;resizable=0;points=[];autosize=1;" vertex="1" parent="1">
          <mxGeometry x="40" y="720" width="90" height="20" as="geometry" />
        </mxCell>
        <mxCell id="bLwB_6TZOeMpm6WE4iFp-39" value="" style="endArrow=classic;html=1;dashed=1;exitX=1;exitY=0.5;exitDx=0;exitDy=0;entryX=0;entryY=1;entryDx=0;entryDy=0;" edge="1" parent="1" source="bLwB_6TZOeMpm6WE4iFp-37" target="bLwB_6TZOeMpm6WE4iFp-32">
          <mxGeometry width="50" height="50" relative="1" as="geometry">
            <mxPoint x="390" y="890" as="sourcePoint" />
            <mxPoint x="440" y="840" as="targetPoint" />
            <Array as="points">
              <mxPoint x="280" y="855" />
              <mxPoint x="280" y="940" />
            </Array>
          </mxGeometry>
        </mxCell>
        <mxCell id="bLwB_6TZOeMpm6WE4iFp-42" value="&lt;b&gt;&lt;i&gt;@alloc_skb&lt;/i&gt;&lt;/b&gt;" style="text;html=1;align=center;verticalAlign=middle;resizable=0;points=[];autosize=1;" vertex="1" parent="1">
          <mxGeometry x="185" y="440" width="80" height="20" as="geometry" />
        </mxCell>
        <mxCell id="bLwB_6TZOeMpm6WE4iFp-43" value="&lt;b&gt;&lt;i&gt;@skb_reserve&lt;/i&gt;&lt;/b&gt;" style="text;html=1;align=center;verticalAlign=middle;resizable=0;points=[];autosize=1;" vertex="1" parent="1">
          <mxGeometry x="175" y="720" width="100" height="20" as="geometry" />
        </mxCell>
        <mxCell id="bLwB_6TZOeMpm6WE4iFp-44" value="head room" style="rounded=0;whiteSpace=wrap;html=1;" vertex="1" parent="1">
          <mxGeometry x="370" y="760" width="120" height="100" as="geometry" />
        </mxCell>
        <mxCell id="bLwB_6TZOeMpm6WE4iFp-45" value="" style="endArrow=classic;html=1;dashed=1;entryX=0;entryY=0;entryDx=0;entryDy=0;exitX=1;exitY=0.5;exitDx=0;exitDy=0;" edge="1" parent="1" source="bLwB_6TZOeMpm6WE4iFp-35" target="bLwB_6TZOeMpm6WE4iFp-32">
          <mxGeometry width="50" height="50" relative="1" as="geometry">
            <mxPoint x="390" y="750" as="sourcePoint" />
            <mxPoint x="440" y="700" as="targetPoint" />
            <Array as="points">
              <mxPoint x="350" y="795" />
            </Array>
          </mxGeometry>
        </mxCell>
        <mxCell id="bLwB_6TZOeMpm6WE4iFp-47" value="" style="endArrow=none;dashed=1;html=1;exitX=1;exitY=0.5;exitDx=0;exitDy=0;" edge="1" parent="1" source="bLwB_6TZOeMpm6WE4iFp-36">
          <mxGeometry width="50" height="50" relative="1" as="geometry">
            <mxPoint x="390" y="730" as="sourcePoint" />
            <mxPoint x="330" y="800" as="targetPoint" />
            <Array as="points">
              <mxPoint x="310" y="825" />
            </Array>
          </mxGeometry>
        </mxCell>
        <mxCell id="bLwB_6TZOeMpm6WE4iFp-48" value="" style="rounded=1;whiteSpace=wrap;html=1;align=left;" vertex="1" parent="1">
          <mxGeometry x="40" y="990" width="250" height="260" as="geometry" />
        </mxCell>
        <mxCell id="bLwB_6TZOeMpm6WE4iFp-49" value="tail room" style="rounded=0;whiteSpace=wrap;html=1;" vertex="1" parent="1">
          <mxGeometry x="370" y="1170" width="120" height="50" as="geometry" />
        </mxCell>
        <mxCell id="bLwB_6TZOeMpm6WE4iFp-50" value="" style="endArrow=classic;html=1;entryX=0;entryY=0;entryDx=0;entryDy=0;dashed=1;exitX=1;exitY=0.5;exitDx=0;exitDy=0;" edge="1" parent="1" source="bLwB_6TZOeMpm6WE4iFp-51">
          <mxGeometry width="50" height="50" relative="1" as="geometry">
            <mxPoint x="310" y="1120" as="sourcePoint" />
            <mxPoint x="370" y="1040" as="targetPoint" />
            <Array as="points">
              <mxPoint x="270" y="1040" />
              <mxPoint x="350" y="1040" />
            </Array>
          </mxGeometry>
        </mxCell>
        <mxCell id="bLwB_6TZOeMpm6WE4iFp-51" value="&lt;p style=&quot;line-height: 10%&quot;&gt;&lt;/p&gt;&lt;div&gt;unsigned char *head&lt;/div&gt;&lt;p&gt;&lt;/p&gt;" style="rounded=0;whiteSpace=wrap;html=1;align=left;dashed=1;" vertex="1" parent="1">
          <mxGeometry x="80" y="1030" width="170" height="30" as="geometry" />
        </mxCell>
        <mxCell id="bLwB_6TZOeMpm6WE4iFp-52" value="&lt;p style=&quot;line-height: 10%&quot;&gt;&lt;/p&gt;&lt;div&gt;unsigned char *data&lt;/div&gt;&lt;p&gt;&lt;/p&gt;" style="rounded=0;whiteSpace=wrap;html=1;align=left;dashed=1;" vertex="1" parent="1">
          <mxGeometry x="80" y="1060" width="170" height="30" as="geometry" />
        </mxCell>
        <mxCell id="bLwB_6TZOeMpm6WE4iFp-53" value="&lt;p style=&quot;line-height: 10%&quot;&gt;&lt;/p&gt;&lt;div&gt;unsigned char *tail&lt;/div&gt;&lt;p&gt;&lt;/p&gt;" style="rounded=0;whiteSpace=wrap;html=1;align=left;dashed=1;gradientColor=#b3b3b3;fillColor=#f5f5f5;strokeColor=#666666;" vertex="1" parent="1">
          <mxGeometry x="80" y="1090" width="170" height="30" as="geometry" />
        </mxCell>
        <mxCell id="bLwB_6TZOeMpm6WE4iFp-54" value="&lt;p style=&quot;line-height: 10%&quot;&gt;&lt;/p&gt;&lt;div&gt;unsigned char *end&lt;/div&gt;&lt;p&gt;&lt;/p&gt;" style="rounded=0;whiteSpace=wrap;html=1;align=left;dashed=1;" vertex="1" parent="1">
          <mxGeometry x="80" y="1120" width="170" height="30" as="geometry" />
        </mxCell>
        <mxCell id="bLwB_6TZOeMpm6WE4iFp-55" value="struct sk_buff" style="text;html=1;align=center;verticalAlign=middle;resizable=0;points=[];autosize=1;" vertex="1" parent="1">
          <mxGeometry x="40" y="1000" width="90" height="20" as="geometry" />
        </mxCell>
        <mxCell id="bLwB_6TZOeMpm6WE4iFp-56" value="" style="endArrow=classic;html=1;dashed=1;exitX=1;exitY=0.5;exitDx=0;exitDy=0;entryX=0;entryY=1;entryDx=0;entryDy=0;" edge="1" parent="1" source="bLwB_6TZOeMpm6WE4iFp-54" target="bLwB_6TZOeMpm6WE4iFp-49">
          <mxGeometry width="50" height="50" relative="1" as="geometry">
            <mxPoint x="390" y="1170" as="sourcePoint" />
            <mxPoint x="440" y="1120" as="targetPoint" />
            <Array as="points">
              <mxPoint x="280" y="1135" />
              <mxPoint x="280" y="1220" />
            </Array>
          </mxGeometry>
        </mxCell>
        <mxCell id="bLwB_6TZOeMpm6WE4iFp-57" value="&lt;b&gt;&lt;i&gt;@skb_put&lt;/i&gt;&lt;/b&gt;" style="text;html=1;align=center;verticalAlign=middle;resizable=0;points=[];autosize=1;" vertex="1" parent="1">
          <mxGeometry x="190" y="1000" width="70" height="20" as="geometry" />
        </mxCell>
        <mxCell id="bLwB_6TZOeMpm6WE4iFp-58" value="head room" style="rounded=0;whiteSpace=wrap;html=1;" vertex="1" parent="1">
          <mxGeometry x="370" y="1040" width="120" height="90" as="geometry" />
        </mxCell>
        <mxCell id="bLwB_6TZOeMpm6WE4iFp-59" value="" style="endArrow=classic;html=1;dashed=1;exitX=1;exitY=0.5;exitDx=0;exitDy=0;entryX=0;entryY=0;entryDx=0;entryDy=0;" edge="1" parent="1" source="bLwB_6TZOeMpm6WE4iFp-52" target="bLwB_6TZOeMpm6WE4iFp-61">
          <mxGeometry width="50" height="50" relative="1" as="geometry">
            <mxPoint x="390" y="1030" as="sourcePoint" />
            <mxPoint x="440" y="980" as="targetPoint" />
            <Array as="points">
              <mxPoint x="350" y="1075" />
            </Array>
          </mxGeometry>
        </mxCell>
        <mxCell id="bLwB_6TZOeMpm6WE4iFp-61" value="data" style="rounded=0;whiteSpace=wrap;html=1;" vertex="1" parent="1">
          <mxGeometry x="370" y="1130" width="120" height="40" as="geometry" />
        </mxCell>
        <mxCell id="bLwB_6TZOeMpm6WE4iFp-62" value="" style="endArrow=classic;html=1;dashed=1;entryX=0;entryY=0;entryDx=0;entryDy=0;exitX=1;exitY=0.5;exitDx=0;exitDy=0;" edge="1" parent="1" source="bLwB_6TZOeMpm6WE4iFp-53" target="bLwB_6TZOeMpm6WE4iFp-49">
          <mxGeometry width="50" height="50" relative="1" as="geometry">
            <mxPoint x="390" y="1030" as="sourcePoint" />
            <mxPoint x="440" y="980" as="targetPoint" />
            <Array as="points">
              <mxPoint x="350" y="1105" />
            </Array>
          </mxGeometry>
        </mxCell>
        <mxCell id="bLwB_6TZOeMpm6WE4iFp-77" value="" style="rounded=1;whiteSpace=wrap;html=1;align=left;" vertex="1" parent="1">
          <mxGeometry x="540" y="990" width="250" height="260" as="geometry" />
        </mxCell>
        <mxCell id="bLwB_6TZOeMpm6WE4iFp-78" value="tail room" style="rounded=0;whiteSpace=wrap;html=1;" vertex="1" parent="1">
          <mxGeometry x="870" y="1170" width="120" height="50" as="geometry" />
        </mxCell>
        <mxCell id="bLwB_6TZOeMpm6WE4iFp-79" value="" style="endArrow=classic;html=1;entryX=0;entryY=0;entryDx=0;entryDy=0;dashed=1;exitX=1;exitY=0.5;exitDx=0;exitDy=0;" edge="1" parent="1" source="bLwB_6TZOeMpm6WE4iFp-80">
          <mxGeometry width="50" height="50" relative="1" as="geometry">
            <mxPoint x="810" y="1120" as="sourcePoint" />
            <mxPoint x="870" y="1040" as="targetPoint" />
            <Array as="points">
              <mxPoint x="770" y="1040" />
              <mxPoint x="850" y="1040" />
            </Array>
          </mxGeometry>
        </mxCell>
        <mxCell id="bLwB_6TZOeMpm6WE4iFp-80" value="&lt;p style=&quot;line-height: 10%&quot;&gt;&lt;/p&gt;&lt;div&gt;unsigned char *head&lt;/div&gt;&lt;p&gt;&lt;/p&gt;" style="rounded=0;whiteSpace=wrap;html=1;align=left;dashed=1;" vertex="1" parent="1">
          <mxGeometry x="580" y="1030" width="170" height="30" as="geometry" />
        </mxCell>
        <mxCell id="bLwB_6TZOeMpm6WE4iFp-81" value="&lt;p style=&quot;line-height: 10%&quot;&gt;&lt;/p&gt;&lt;div&gt;unsigned char *data&lt;/div&gt;&lt;p&gt;&lt;/p&gt;" style="rounded=0;whiteSpace=wrap;html=1;align=left;dashed=1;gradientColor=#b3b3b3;fillColor=#f5f5f5;strokeColor=#666666;" vertex="1" parent="1">
          <mxGeometry x="580" y="1060" width="170" height="30" as="geometry" />
        </mxCell>
        <mxCell id="bLwB_6TZOeMpm6WE4iFp-82" value="&lt;p style=&quot;line-height: 10%&quot;&gt;&lt;/p&gt;&lt;div&gt;unsigned char *tail&lt;/div&gt;&lt;p&gt;&lt;/p&gt;" style="rounded=0;whiteSpace=wrap;html=1;align=left;dashed=1;" vertex="1" parent="1">
          <mxGeometry x="580" y="1090" width="170" height="30" as="geometry" />
        </mxCell>
        <mxCell id="bLwB_6TZOeMpm6WE4iFp-83" value="&lt;p style=&quot;line-height: 10%&quot;&gt;&lt;/p&gt;&lt;div&gt;unsigned char *end&lt;/div&gt;&lt;p&gt;&lt;/p&gt;" style="rounded=0;whiteSpace=wrap;html=1;align=left;dashed=1;" vertex="1" parent="1">
          <mxGeometry x="580" y="1120" width="170" height="30" as="geometry" />
        </mxCell>
        <mxCell id="bLwB_6TZOeMpm6WE4iFp-84" value="struct sk_buff" style="text;html=1;align=center;verticalAlign=middle;resizable=0;points=[];autosize=1;" vertex="1" parent="1">
          <mxGeometry x="540" y="1000" width="90" height="20" as="geometry" />
        </mxCell>
        <mxCell id="bLwB_6TZOeMpm6WE4iFp-85" value="" style="endArrow=classic;html=1;dashed=1;exitX=1;exitY=0.5;exitDx=0;exitDy=0;entryX=0;entryY=1;entryDx=0;entryDy=0;" edge="1" parent="1" source="bLwB_6TZOeMpm6WE4iFp-83" target="bLwB_6TZOeMpm6WE4iFp-78">
          <mxGeometry width="50" height="50" relative="1" as="geometry">
            <mxPoint x="890" y="1170" as="sourcePoint" />
            <mxPoint x="940" y="1120" as="targetPoint" />
            <Array as="points">
              <mxPoint x="780" y="1135" />
              <mxPoint x="780" y="1220" />
            </Array>
          </mxGeometry>
        </mxCell>
        <mxCell id="bLwB_6TZOeMpm6WE4iFp-86" value="&lt;b&gt;&lt;i&gt;@skb_push&lt;/i&gt;&lt;/b&gt;" style="text;html=1;align=center;verticalAlign=middle;resizable=0;points=[];autosize=1;" vertex="1" parent="1">
          <mxGeometry x="685" y="1000" width="80" height="20" as="geometry" />
        </mxCell>
        <mxCell id="bLwB_6TZOeMpm6WE4iFp-87" value="head room" style="rounded=0;whiteSpace=wrap;html=1;fillColor=#eeeeee;strokeColor=#36393d;" vertex="1" parent="1">
          <mxGeometry x="870" y="1040" width="120" height="30" as="geometry" />
        </mxCell>
        <mxCell id="bLwB_6TZOeMpm6WE4iFp-88" value="" style="endArrow=classic;html=1;dashed=1;exitX=1;exitY=0.5;exitDx=0;exitDy=0;entryX=0;entryY=0;entryDx=0;entryDy=0;" edge="1" parent="1" source="bLwB_6TZOeMpm6WE4iFp-81" target="bLwB_6TZOeMpm6WE4iFp-91">
          <mxGeometry width="50" height="50" relative="1" as="geometry">
            <mxPoint x="890" y="1030" as="sourcePoint" />
            <mxPoint x="940" y="980" as="targetPoint" />
            <Array as="points">
              <mxPoint x="850" y="1075" />
            </Array>
          </mxGeometry>
        </mxCell>
        <mxCell id="bLwB_6TZOeMpm6WE4iFp-89" value="data" style="rounded=0;whiteSpace=wrap;html=1;" vertex="1" parent="1">
          <mxGeometry x="870" y="1130" width="120" height="40" as="geometry" />
        </mxCell>
        <mxCell id="bLwB_6TZOeMpm6WE4iFp-90" value="" style="endArrow=classic;html=1;dashed=1;entryX=0;entryY=0;entryDx=0;entryDy=0;exitX=1;exitY=0.5;exitDx=0;exitDy=0;" edge="1" parent="1" source="bLwB_6TZOeMpm6WE4iFp-82" target="bLwB_6TZOeMpm6WE4iFp-78">
          <mxGeometry width="50" height="50" relative="1" as="geometry">
            <mxPoint x="890" y="1030" as="sourcePoint" />
            <mxPoint x="940" y="980" as="targetPoint" />
            <Array as="points">
              <mxPoint x="850" y="1105" />
            </Array>
          </mxGeometry>
        </mxCell>
        <mxCell id="bLwB_6TZOeMpm6WE4iFp-91" value="IP header" style="rounded=0;whiteSpace=wrap;html=1;dashed=1;" vertex="1" parent="1">
          <mxGeometry x="870" y="1070" width="120" height="30" as="geometry" />
        </mxCell>
        <mxCell id="bLwB_6TZOeMpm6WE4iFp-92" value="UDP header" style="rounded=0;whiteSpace=wrap;html=1;dashed=1;" vertex="1" parent="1">
          <mxGeometry x="870" y="1100" width="120" height="30" as="geometry" />
        </mxCell>
        <mxCell id="bLwB_6TZOeMpm6WE4iFp-95" value="" style="rounded=1;whiteSpace=wrap;html=1;align=left;" vertex="1" parent="1">
          <mxGeometry x="540" y="710" width="250" height="260" as="geometry" />
        </mxCell>
        <mxCell id="bLwB_6TZOeMpm6WE4iFp-96" value="tail room" style="rounded=0;whiteSpace=wrap;html=1;" vertex="1" parent="1">
          <mxGeometry x="870" y="890" width="120" height="50" as="geometry" />
        </mxCell>
        <mxCell id="bLwB_6TZOeMpm6WE4iFp-97" value="" style="endArrow=classic;html=1;entryX=0;entryY=0;entryDx=0;entryDy=0;dashed=1;exitX=1;exitY=0.5;exitDx=0;exitDy=0;" edge="1" parent="1" source="bLwB_6TZOeMpm6WE4iFp-98">
          <mxGeometry width="50" height="50" relative="1" as="geometry">
            <mxPoint x="810" y="840" as="sourcePoint" />
            <mxPoint x="870" y="760" as="targetPoint" />
            <Array as="points">
              <mxPoint x="770" y="760" />
              <mxPoint x="850" y="760" />
            </Array>
          </mxGeometry>
        </mxCell>
        <mxCell id="bLwB_6TZOeMpm6WE4iFp-98" value="&lt;p style=&quot;line-height: 10%&quot;&gt;&lt;/p&gt;&lt;div&gt;unsigned char *head&lt;/div&gt;&lt;p&gt;&lt;/p&gt;" style="rounded=0;whiteSpace=wrap;html=1;align=left;dashed=1;" vertex="1" parent="1">
          <mxGeometry x="580" y="750" width="170" height="30" as="geometry" />
        </mxCell>
        <mxCell id="bLwB_6TZOeMpm6WE4iFp-99" value="&lt;p style=&quot;line-height: 10%&quot;&gt;&lt;/p&gt;&lt;div&gt;unsigned char *data&lt;/div&gt;&lt;p&gt;&lt;/p&gt;" style="rounded=0;whiteSpace=wrap;html=1;align=left;dashed=1;gradientColor=#b3b3b3;fillColor=#f5f5f5;strokeColor=#666666;" vertex="1" parent="1">
          <mxGeometry x="580" y="780" width="170" height="30" as="geometry" />
        </mxCell>
        <mxCell id="bLwB_6TZOeMpm6WE4iFp-100" value="&lt;p style=&quot;line-height: 10%&quot;&gt;&lt;/p&gt;&lt;div&gt;unsigned char *tail&lt;/div&gt;&lt;p&gt;&lt;/p&gt;" style="rounded=0;whiteSpace=wrap;html=1;align=left;dashed=1;" vertex="1" parent="1">
          <mxGeometry x="580" y="810" width="170" height="30" as="geometry" />
        </mxCell>
        <mxCell id="bLwB_6TZOeMpm6WE4iFp-101" value="&lt;p style=&quot;line-height: 10%&quot;&gt;&lt;/p&gt;&lt;div&gt;unsigned char *end&lt;/div&gt;&lt;p&gt;&lt;/p&gt;" style="rounded=0;whiteSpace=wrap;html=1;align=left;dashed=1;" vertex="1" parent="1">
          <mxGeometry x="580" y="840" width="170" height="30" as="geometry" />
        </mxCell>
        <mxCell id="bLwB_6TZOeMpm6WE4iFp-102" value="struct sk_buff" style="text;html=1;align=center;verticalAlign=middle;resizable=0;points=[];autosize=1;" vertex="1" parent="1">
          <mxGeometry x="540" y="720" width="90" height="20" as="geometry" />
        </mxCell>
        <mxCell id="bLwB_6TZOeMpm6WE4iFp-103" value="" style="endArrow=classic;html=1;dashed=1;exitX=1;exitY=0.5;exitDx=0;exitDy=0;entryX=0;entryY=1;entryDx=0;entryDy=0;" edge="1" parent="1" source="bLwB_6TZOeMpm6WE4iFp-101" target="bLwB_6TZOeMpm6WE4iFp-96">
          <mxGeometry width="50" height="50" relative="1" as="geometry">
            <mxPoint x="890" y="890" as="sourcePoint" />
            <mxPoint x="940" y="840" as="targetPoint" />
            <Array as="points">
              <mxPoint x="780" y="855" />
              <mxPoint x="780" y="940" />
            </Array>
          </mxGeometry>
        </mxCell>
        <mxCell id="bLwB_6TZOeMpm6WE4iFp-104" value="&lt;b&gt;&lt;i&gt;@skb_pull&lt;/i&gt;&lt;/b&gt;" style="text;html=1;align=center;verticalAlign=middle;resizable=0;points=[];autosize=1;" vertex="1" parent="1">
          <mxGeometry x="685" y="720" width="80" height="20" as="geometry" />
        </mxCell>
        <mxCell id="bLwB_6TZOeMpm6WE4iFp-105" value="head room" style="rounded=0;whiteSpace=wrap;html=1;fillColor=#f9f7ed;strokeColor=#36393d;shadow=1;" vertex="1" parent="1">
          <mxGeometry x="870" y="760" width="120" height="30" as="geometry" />
        </mxCell>
        <mxCell id="bLwB_6TZOeMpm6WE4iFp-106" value="" style="endArrow=classic;html=1;dashed=1;exitX=1;exitY=0.5;exitDx=0;exitDy=0;entryX=0;entryY=1;entryDx=0;entryDy=0;" edge="1" parent="1" source="bLwB_6TZOeMpm6WE4iFp-99" target="bLwB_6TZOeMpm6WE4iFp-109">
          <mxGeometry width="50" height="50" relative="1" as="geometry">
            <mxPoint x="890" y="750" as="sourcePoint" />
            <mxPoint x="940" y="700" as="targetPoint" />
            <Array as="points">
              <mxPoint x="850" y="795" />
            </Array>
          </mxGeometry>
        </mxCell>
        <mxCell id="bLwB_6TZOeMpm6WE4iFp-107" value="data" style="rounded=0;whiteSpace=wrap;html=1;" vertex="1" parent="1">
          <mxGeometry x="870" y="850" width="120" height="40" as="geometry" />
        </mxCell>
        <mxCell id="bLwB_6TZOeMpm6WE4iFp-108" value="" style="endArrow=classic;html=1;dashed=1;entryX=0;entryY=0;entryDx=0;entryDy=0;exitX=1;exitY=0.5;exitDx=0;exitDy=0;" edge="1" parent="1" source="bLwB_6TZOeMpm6WE4iFp-100" target="bLwB_6TZOeMpm6WE4iFp-96">
          <mxGeometry width="50" height="50" relative="1" as="geometry">
            <mxPoint x="890" y="750" as="sourcePoint" />
            <mxPoint x="940" y="700" as="targetPoint" />
            <Array as="points">
              <mxPoint x="850" y="825" />
            </Array>
          </mxGeometry>
        </mxCell>
        <mxCell id="bLwB_6TZOeMpm6WE4iFp-109" value="IP header" style="rounded=0;whiteSpace=wrap;html=1;dashed=1;shadow=1;fillColor=#f9f7ed;strokeColor=#36393d;" vertex="1" parent="1">
          <mxGeometry x="870" y="790" width="120" height="30" as="geometry" />
        </mxCell>
        <mxCell id="bLwB_6TZOeMpm6WE4iFp-110" value="UDP header" style="rounded=0;whiteSpace=wrap;html=1;dashed=1;" vertex="1" parent="1">
          <mxGeometry x="870" y="820" width="120" height="30" as="geometry" />
        </mxCell>
        <mxCell id="bLwB_6TZOeMpm6WE4iFp-111" value="&lt;span style=&quot;font-family: monospace ; font-size: medium ; background-color: rgb(255 , 255 , 255)&quot;&gt;-&amp;gt; sk-&amp;gt;sk_prot-&amp;gt;max_header&lt;/span&gt;" style="text;html=1;align=center;verticalAlign=middle;resizable=0;points=[];autosize=1;" vertex="1" parent="1">
          <mxGeometry x="314" y="690" width="220" height="20" as="geometry" />
        </mxCell>
        <mxCell id="bLwB_6TZOeMpm6WE4iFp-112" value="&lt;span style=&quot;font-family: monospace ; font-size: medium ; background-color: rgb(255 , 255 , 255)&quot;&gt;&amp;lt;- NET_IP_ALIGN&lt;/span&gt;" style="text;html=1;align=center;verticalAlign=middle;resizable=0;points=[];autosize=1;" vertex="1" parent="1">
          <mxGeometry x="310" y="710" width="130" height="20" as="geometry" />
        </mxCell>
        <mxCell id="bLwB_6TZOeMpm6WE4iFp-118" value="&lt;p style=&quot;line-height: 10%&quot;&gt;&lt;/p&gt;&lt;div&gt;__u16 network_header&lt;/div&gt;&lt;p&gt;&lt;/p&gt;" style="rounded=0;whiteSpace=wrap;html=1;align=left;dashed=1;fillColor=#eeeeee;strokeColor=#36393d;" vertex="1" parent="1">
          <mxGeometry x="580" y="1169" width="170" height="30" as="geometry" />
        </mxCell>
        <mxCell id="bLwB_6TZOeMpm6WE4iFp-120" value="&lt;p style=&quot;line-height: 10%&quot;&gt;&lt;/p&gt;&lt;div&gt;__u16 network_header&lt;/div&gt;&lt;p&gt;&lt;/p&gt;" style="rounded=0;whiteSpace=wrap;html=1;align=left;dashed=1;fillColor=#eeeeee;strokeColor=#36393d;" vertex="1" parent="1">
          <mxGeometry x="580" y="885" width="170" height="30" as="geometry" />
        </mxCell>
        <mxCell id="bLwB_6TZOeMpm6WE4iFp-121" value="&lt;p style=&quot;line-height: 10%&quot;&gt;&lt;/p&gt;&lt;div&gt;__u16 transport_header&lt;/div&gt;&lt;p&gt;&lt;/p&gt;" style="rounded=0;whiteSpace=wrap;html=1;align=left;dashed=1;fillColor=#f9f7ed;strokeColor=#36393d;" vertex="1" parent="1">
          <mxGeometry x="580" y="915" width="170" height="30" as="geometry" />
        </mxCell>
        <mxCell id="bLwB_6TZOeMpm6WE4iFp-122" value="" style="endArrow=none;dashed=1;html=1;entryX=0;entryY=0.5;entryDx=0;entryDy=0;exitX=1;exitY=0.5;exitDx=0;exitDy=0;" edge="1" parent="1" source="bLwB_6TZOeMpm6WE4iFp-118" target="bLwB_6TZOeMpm6WE4iFp-87">
          <mxGeometry width="50" height="50" relative="1" as="geometry">
            <mxPoint x="780" y="1170" as="sourcePoint" />
            <mxPoint x="830" y="1120" as="targetPoint" />
            <Array as="points">
              <mxPoint x="810" y="1184" />
              <mxPoint x="810" y="1055" />
            </Array>
          </mxGeometry>
        </mxCell>
        <mxCell id="bLwB_6TZOeMpm6WE4iFp-123" value="" style="endArrow=none;dashed=1;html=1;entryX=0;entryY=0;entryDx=0;entryDy=0;exitX=1;exitY=0.5;exitDx=0;exitDy=0;" edge="1" parent="1" target="bLwB_6TZOeMpm6WE4iFp-109">
          <mxGeometry width="50" height="50" relative="1" as="geometry">
            <mxPoint x="750" y="929" as="sourcePoint" />
            <mxPoint x="870" y="800" as="targetPoint" />
            <Array as="points">
              <mxPoint x="810" y="929" />
              <mxPoint x="810" y="770" />
              <mxPoint x="850" y="770" />
            </Array>
          </mxGeometry>
        </mxCell>
      </root>
    </mxGraphModel>
  </diagram>
</mxfile>
